<svg width="160" height="235" viewBox="0 0 160 235" fill="none" xmlns="http://www.w3.org/2000/svg">
<path d="M15.516 164V146.545H21.6183C22.8342 146.545 23.837 146.756 24.6268 147.176C25.4165 147.591 26.0046 148.151 26.391 148.855C26.7773 149.554 26.9705 150.33 26.9705 151.182C26.9705 151.932 26.837 152.551 26.57 153.04C26.3086 153.528 25.962 153.915 25.5302 154.199C25.104 154.483 24.641 154.693 24.141 154.83V155C24.6751 155.034 25.212 155.222 25.7518 155.562C26.2915 155.903 26.7433 156.392 27.1069 157.028C27.4705 157.665 27.6523 158.443 27.6523 159.364C27.6523 160.239 27.4535 161.026 27.0558 161.724C26.658 162.423 26.0302 162.977 25.1722 163.386C24.3143 163.795 23.1978 164 21.8228 164H15.516ZM17.6296 162.125H21.8228C23.2035 162.125 24.1836 161.858 24.7631 161.324C25.3484 160.784 25.641 160.131 25.641 159.364C25.641 158.773 25.4904 158.227 25.1893 157.727C24.8881 157.222 24.4592 156.818 23.9023 156.517C23.3455 156.21 22.6864 156.057 21.9251 156.057H17.6296V162.125ZM17.6296 154.216H21.5501C22.1864 154.216 22.7603 154.091 23.2717 153.841C23.7887 153.591 24.1978 153.239 24.4989 152.784C24.8058 152.33 24.9592 151.795 24.9592 151.182C24.9592 150.415 24.6921 149.764 24.158 149.23C23.6239 148.69 22.7773 148.42 21.6183 148.42H17.6296V154.216ZM39.1026 158.648V150.909H41.114V164H39.1026V161.784H38.9663C38.6594 162.449 38.1822 163.014 37.5344 163.48C36.8867 163.94 36.0685 164.17 35.0799 164.17C34.2617 164.17 33.5344 163.991 32.8981 163.634C32.2617 163.27 31.7617 162.724 31.3981 161.997C31.0344 161.264 30.8526 160.341 30.8526 159.227V150.909H32.864V159.091C32.864 160.045 33.131 160.807 33.6651 161.375C34.2049 161.943 34.8924 162.227 35.7276 162.227C36.2276 162.227 36.7362 162.099 37.2532 161.844C37.7759 161.588 38.2134 161.196 38.5657 160.668C38.9237 160.139 39.1026 159.466 39.1026 158.648ZM46.0934 168.909C45.7525 168.909 45.4485 168.881 45.1815 168.824C44.9144 168.773 44.7298 168.722 44.6275 168.67L45.1388 166.898C45.6275 167.023 46.0593 167.068 46.4343 167.034C46.8093 167 47.1417 166.832 47.4315 166.531C47.7269 166.236 47.9968 165.756 48.2411 165.091L48.6161 164.068L43.7752 150.909H45.957L49.5707 161.341H49.707L53.3207 150.909H55.5025L49.9457 165.909C49.6957 166.585 49.386 167.145 49.0167 167.588C48.6474 168.037 48.2184 168.369 47.7298 168.585C47.2468 168.801 46.7013 168.909 46.0934 168.909ZM70.5664 164H65.18V146.545H70.805C72.4982 146.545 73.9471 146.895 75.1516 147.594C76.3562 148.287 77.2795 149.284 77.9215 150.585C78.5636 151.881 78.8846 153.432 78.8846 155.239C78.8846 157.057 78.5607 158.622 77.913 159.935C77.2653 161.241 76.3221 162.247 75.0835 162.952C73.8448 163.651 72.3391 164 70.5664 164ZM67.2937 162.125H70.43C71.8732 162.125 73.0692 161.847 74.0181 161.29C74.967 160.733 75.6744 159.94 76.1403 158.912C76.6062 157.884 76.8391 156.659 76.8391 155.239C76.8391 153.83 76.609 152.616 76.1488 151.599C75.6886 150.577 75.0011 149.793 74.0863 149.247C73.1715 148.696 72.0323 148.42 70.6687 148.42H67.2937V162.125ZM82.1573 164V150.909H84.1687V164H82.1573ZM83.18 148.727C82.788 148.727 82.4499 148.594 82.1658 148.327C81.8874 148.06 81.7482 147.739 81.7482 147.364C81.7482 146.989 81.8874 146.668 82.1658 146.401C82.4499 146.134 82.788 146 83.18 146C83.5721 146 83.9073 146.134 84.1857 146.401C84.4698 146.668 84.6119 146.989 84.6119 147.364C84.6119 147.739 84.4698 148.06 84.1857 148.327C83.9073 148.594 83.5721 148.727 83.18 148.727ZM97.1254 153.841L95.3185 154.352C95.2049 154.051 95.0373 153.759 94.8157 153.474C94.5998 153.185 94.3043 152.946 93.9293 152.759C93.5543 152.571 93.0742 152.477 92.489 152.477C91.6879 152.477 91.0202 152.662 90.4862 153.031C89.9577 153.395 89.6935 153.858 89.6935 154.42C89.6935 154.92 89.8754 155.315 90.239 155.605C90.6026 155.895 91.1708 156.136 91.9435 156.33L93.8867 156.807C95.0572 157.091 95.9293 157.526 96.5032 158.111C97.0771 158.69 97.364 159.437 97.364 160.352C97.364 161.102 97.1481 161.773 96.7163 162.364C96.2901 162.955 95.6935 163.42 94.9265 163.761C94.1594 164.102 93.2674 164.273 92.2504 164.273C90.9151 164.273 89.81 163.983 88.935 163.403C88.06 162.824 87.506 161.977 87.2731 160.864L89.1822 160.386C89.364 161.091 89.7077 161.619 90.2134 161.972C90.7248 162.324 91.3924 162.5 92.2163 162.5C93.1538 162.5 93.8981 162.301 94.4492 161.903C95.006 161.5 95.2844 161.017 95.2844 160.455C95.2844 160 95.1254 159.619 94.8072 159.312C94.489 159 94.0004 158.767 93.3413 158.614L91.1594 158.102C89.9606 157.818 89.0799 157.378 88.5174 156.781C87.9606 156.179 87.6822 155.426 87.6822 154.523C87.6822 153.784 87.8896 153.131 88.3043 152.562C88.7248 151.994 89.2958 151.548 90.0174 151.224C90.7447 150.901 91.5685 150.739 92.489 150.739C93.7844 150.739 94.8015 151.023 95.5401 151.591C96.2844 152.159 96.8129 152.909 97.1254 153.841ZM105.71 164.273C104.483 164.273 103.426 163.983 102.539 163.403C101.653 162.824 100.971 162.026 100.494 161.009C100.017 159.991 99.7781 158.83 99.7781 157.523C99.7781 156.193 100.022 155.02 100.511 154.003C101.005 152.98 101.693 152.182 102.574 151.608C103.46 151.028 104.494 150.739 105.676 150.739C106.596 150.739 107.426 150.909 108.164 151.25C108.903 151.591 109.508 152.068 109.98 152.682C110.451 153.295 110.744 154.011 110.858 154.83H108.846C108.693 154.233 108.352 153.705 107.824 153.244C107.301 152.778 106.596 152.545 105.71 152.545C104.926 152.545 104.238 152.75 103.647 153.159C103.062 153.562 102.605 154.134 102.275 154.872C101.951 155.605 101.789 156.466 101.789 157.455C101.789 158.466 101.949 159.347 102.267 160.097C102.591 160.847 103.045 161.429 103.63 161.844C104.221 162.259 104.914 162.466 105.71 162.466C106.233 162.466 106.707 162.375 107.133 162.193C107.559 162.011 107.92 161.75 108.216 161.409C108.511 161.068 108.721 160.659 108.846 160.182H110.858C110.744 160.955 110.463 161.651 110.014 162.27C109.571 162.884 108.983 163.372 108.25 163.736C107.522 164.094 106.676 164.273 105.71 164.273ZM123.071 153.841L121.264 154.352C121.15 154.051 120.983 153.759 120.761 153.474C120.545 153.185 120.25 152.946 119.875 152.759C119.5 152.571 119.02 152.477 118.434 152.477C117.633 152.477 116.966 152.662 116.431 153.031C115.903 153.395 115.639 153.858 115.639 154.42C115.639 154.92 115.821 155.315 116.184 155.605C116.548 155.895 117.116 156.136 117.889 156.33L119.832 156.807C121.002 157.091 121.875 157.526 122.449 158.111C123.022 158.69 123.309 159.437 123.309 160.352C123.309 161.102 123.093 161.773 122.662 162.364C122.235 162.955 121.639 163.42 120.872 163.761C120.105 164.102 119.213 164.273 118.196 164.273C116.86 164.273 115.755 163.983 114.88 163.403C114.005 162.824 113.451 161.977 113.218 160.864L115.127 160.386C115.309 161.091 115.653 161.619 116.159 161.972C116.67 162.324 117.338 162.5 118.162 162.5C119.099 162.5 119.843 162.301 120.395 161.903C120.951 161.5 121.23 161.017 121.23 160.455C121.23 160 121.071 159.619 120.752 159.312C120.434 159 119.946 158.767 119.287 158.614L117.105 158.102C115.906 157.818 115.025 157.378 114.463 156.781C113.906 156.179 113.627 155.426 113.627 154.523C113.627 153.784 113.835 153.131 114.25 152.562C114.67 151.994 115.241 151.548 115.963 151.224C116.69 150.901 117.514 150.739 118.434 150.739C119.73 150.739 120.747 151.023 121.485 151.591C122.23 152.159 122.758 152.909 123.071 153.841ZM138.03 164.239C136.882 164.239 135.894 164.028 135.064 163.608C134.235 163.187 133.596 162.611 133.147 161.878C132.698 161.145 132.473 160.307 132.473 159.364C132.473 158.636 132.627 157.991 132.934 157.429C133.246 156.861 133.675 156.335 134.221 155.852C134.772 155.364 135.405 154.875 136.121 154.386L138.644 152.511C139.138 152.187 139.533 151.841 139.828 151.472C140.13 151.102 140.28 150.619 140.28 150.023C140.28 149.58 140.084 149.151 139.692 148.736C139.306 148.321 138.797 148.114 138.167 148.114C137.723 148.114 137.331 148.227 136.99 148.455C136.655 148.676 136.391 148.96 136.198 149.307C136.01 149.648 135.917 150 135.917 150.364C135.917 150.773 136.027 151.188 136.249 151.608C136.476 152.023 136.763 152.449 137.11 152.886C137.462 153.318 137.826 153.761 138.201 154.216L146.212 164H143.792L137.178 156.023C136.564 155.284 136.007 154.614 135.507 154.011C135.007 153.409 134.61 152.815 134.314 152.23C134.019 151.645 133.871 151.011 133.871 150.33C133.871 149.545 134.044 148.858 134.391 148.267C134.743 147.67 135.235 147.207 135.865 146.878C136.502 146.543 137.246 146.375 138.098 146.375C138.973 146.375 139.726 146.545 140.357 146.886C140.988 147.222 141.473 147.668 141.814 148.224C142.155 148.776 142.326 149.375 142.326 150.023C142.326 150.858 142.118 151.582 141.703 152.196C141.289 152.81 140.723 153.381 140.007 153.909L136.53 156.5C135.746 157.08 135.215 157.642 134.936 158.188C134.658 158.733 134.519 159.125 134.519 159.364C134.519 159.909 134.661 160.418 134.945 160.889C135.229 161.361 135.63 161.741 136.147 162.031C136.664 162.321 137.269 162.466 137.962 162.466C138.621 162.466 139.263 162.327 139.888 162.048C140.513 161.764 141.078 161.355 141.584 160.821C142.096 160.287 142.499 159.645 142.794 158.895C143.096 158.145 143.246 157.301 143.246 156.364H145.189C145.189 157.523 145.056 158.469 144.789 159.202C144.522 159.935 144.221 160.509 143.885 160.923C143.55 161.338 143.28 161.648 143.076 161.852C143.007 161.937 142.945 162.023 142.888 162.108C142.831 162.193 142.769 162.278 142.701 162.364C142.138 162.994 141.428 163.466 140.57 163.778C139.712 164.085 138.865 164.239 138.03 164.239ZM21.7035 193V175.545H32.2376V177.42H23.8171V183.318H31.6921V185.193H23.8171V191.125H32.3739V193H21.7035ZM44.7063 197.909V190.989H44.5359C44.3881 191.227 44.1779 191.528 43.9052 191.892C43.6325 192.25 43.2433 192.571 42.7376 192.855C42.2319 193.134 41.5586 193.273 40.7177 193.273C39.6268 193.273 38.6637 192.997 37.8285 192.446C36.9933 191.889 36.3398 191.105 35.8683 190.094C35.3967 189.077 35.1609 187.875 35.1609 186.489C35.1609 185.114 35.3967 183.92 35.8683 182.909C36.3398 181.898 36.9961 181.116 37.837 180.565C38.6779 180.014 39.6495 179.739 40.7518 179.739C41.604 179.739 42.2773 179.881 42.7717 180.165C43.2717 180.443 43.6523 180.761 43.9137 181.119C44.1808 181.472 44.3881 181.761 44.5359 181.989H44.7745V179.909H46.7177V197.909H44.7063ZM40.9904 191.466C41.7972 191.466 42.479 191.256 43.0359 190.835C43.5927 190.409 44.016 189.821 44.3058 189.071C44.5955 188.315 44.7404 187.443 44.7404 186.455C44.7404 185.477 44.5984 184.622 44.3143 183.889C44.0302 183.151 43.6097 182.577 43.0529 182.168C42.4961 181.753 41.8086 181.545 40.9904 181.545C40.1381 181.545 39.4279 181.764 38.8597 182.202C38.2972 182.634 37.8739 183.222 37.5898 183.966C37.3114 184.705 37.1722 185.534 37.1722 186.455C37.1722 187.386 37.3143 188.233 37.5984 188.994C37.8881 189.75 38.3143 190.352 38.8768 190.801C39.445 191.244 40.1495 191.466 40.9904 191.466ZM58.6495 187.648V179.909H60.6609V193H58.6495V190.784H58.5131C58.2063 191.449 57.729 192.014 57.0813 192.48C56.4336 192.94 55.6154 193.17 54.6268 193.17C53.8086 193.17 53.0813 192.991 52.445 192.634C51.8086 192.27 51.3086 191.724 50.945 190.997C50.5813 190.264 50.3995 189.341 50.3995 188.227V179.909H52.4109V188.091C52.4109 189.045 52.6779 189.807 53.212 190.375C53.7518 190.943 54.4393 191.227 55.2745 191.227C55.7745 191.227 56.283 191.099 56.8001 190.844C57.3228 190.588 57.7603 190.196 58.1126 189.668C58.4705 189.139 58.6495 188.466 58.6495 187.648ZM64.3448 193V179.909H66.3562V193H64.3448ZM65.3675 177.727C64.9755 177.727 64.6374 177.594 64.3533 177.327C64.0749 177.06 63.9357 176.739 63.9357 176.364C63.9357 175.989 64.0749 175.668 64.3533 175.401C64.6374 175.134 64.9755 175 65.3675 175C65.7596 175 66.0948 175.134 66.3732 175.401C66.6573 175.668 66.7994 175.989 66.7994 176.364C66.7994 176.739 66.6573 177.06 66.3732 177.327C66.0948 177.594 65.7596 177.727 65.3675 177.727ZM70.0401 197.909V179.909H71.9833V181.989H72.2219C72.3697 181.761 72.5742 181.472 72.8356 181.119C73.1026 180.761 73.4833 180.443 73.9776 180.165C74.4776 179.881 75.1538 179.739 76.006 179.739C77.1083 179.739 78.0799 180.014 78.9208 180.565C79.7617 181.116 80.418 181.898 80.8896 182.909C81.3612 183.92 81.5969 185.114 81.5969 186.489C81.5969 187.875 81.3612 189.077 80.8896 190.094C80.418 191.105 79.7646 191.889 78.9293 192.446C78.0941 192.997 77.131 193.273 76.0401 193.273C75.1992 193.273 74.5259 193.134 74.0202 192.855C73.5146 192.571 73.1254 192.25 72.8526 191.892C72.5799 191.528 72.3697 191.227 72.2219 190.989H72.0515V197.909H70.0401ZM72.0174 186.455C72.0174 187.443 72.1623 188.315 72.4521 189.071C72.7418 189.821 73.1651 190.409 73.7219 190.835C74.2788 191.256 74.9606 191.466 75.7674 191.466C76.6083 191.466 77.31 191.244 77.8725 190.801C78.4407 190.352 78.8668 189.75 79.1509 188.994C79.4407 188.233 79.5856 187.386 79.5856 186.455C79.5856 185.534 79.4435 184.705 79.1594 183.966C78.881 183.222 78.4577 182.634 77.8896 182.202C77.3271 181.764 76.6197 181.545 75.7674 181.545C74.9492 181.545 74.2617 181.753 73.7049 182.168C73.1481 182.577 72.7276 183.151 72.4435 183.889C72.1594 184.622 72.0174 185.477 72.0174 186.455ZM84.6651 193V179.909H86.6083V181.955H86.7788C87.0515 181.256 87.4918 180.713 88.0998 180.327C88.7077 179.935 89.4379 179.739 90.2901 179.739C91.1538 179.739 91.8725 179.935 92.4464 180.327C93.0259 180.713 93.4776 181.256 93.8015 181.955H93.9379C94.2731 181.278 94.7759 180.741 95.4464 180.344C96.1168 179.94 96.9208 179.739 97.8583 179.739C99.0288 179.739 99.9862 180.105 100.73 180.838C101.475 181.565 101.847 182.699 101.847 184.239V193H99.8356V184.239C99.8356 183.273 99.5714 182.582 99.043 182.168C98.5146 181.753 97.8924 181.545 97.1765 181.545C96.256 181.545 95.543 181.824 95.0373 182.381C94.5316 182.932 94.2788 183.631 94.2788 184.477V193H92.2333V184.034C92.2333 183.29 91.9918 182.69 91.5089 182.236C91.0259 181.776 90.4038 181.545 89.6424 181.545C89.1197 181.545 88.631 181.685 88.1765 181.963C87.7276 182.241 87.364 182.628 87.0856 183.122C86.8129 183.611 86.6765 184.176 86.6765 184.818V193H84.6651ZM111.013 193.273C109.752 193.273 108.664 192.994 107.749 192.438C106.84 191.875 106.138 191.091 105.644 190.085C105.155 189.074 104.911 187.898 104.911 186.557C104.911 185.216 105.155 184.034 105.644 183.011C106.138 181.983 106.826 181.182 107.706 180.608C108.593 180.028 109.627 179.739 110.809 179.739C111.49 179.739 112.164 179.852 112.828 180.08C113.493 180.307 114.098 180.676 114.644 181.188C115.189 181.693 115.624 182.364 115.948 183.199C116.272 184.034 116.434 185.062 116.434 186.284V187.136H106.343V185.398H114.388C114.388 184.659 114.24 184 113.945 183.42C113.655 182.841 113.24 182.384 112.701 182.048C112.167 181.713 111.536 181.545 110.809 181.545C110.007 181.545 109.314 181.744 108.729 182.142C108.15 182.534 107.703 183.045 107.391 183.676C107.078 184.307 106.922 184.983 106.922 185.705V186.864C106.922 187.852 107.093 188.69 107.434 189.378C107.78 190.06 108.26 190.58 108.874 190.938C109.488 191.29 110.201 191.466 111.013 191.466C111.542 191.466 112.019 191.392 112.445 191.244C112.877 191.091 113.249 190.864 113.561 190.562C113.874 190.256 114.115 189.875 114.286 189.42L116.229 189.966C116.025 190.625 115.681 191.205 115.198 191.705C114.715 192.199 114.118 192.585 113.408 192.864C112.698 193.136 111.9 193.273 111.013 193.273ZM121.505 185.125V193H119.493V179.909H121.436V181.955H121.607C121.914 181.29 122.38 180.756 123.005 180.352C123.63 179.943 124.436 179.739 125.425 179.739C126.311 179.739 127.087 179.92 127.752 180.284C128.417 180.642 128.934 181.188 129.303 181.92C129.672 182.648 129.857 183.568 129.857 184.682V193H127.846V184.818C127.846 183.79 127.578 182.989 127.044 182.415C126.51 181.835 125.777 181.545 124.846 181.545C124.203 181.545 123.63 181.685 123.124 181.963C122.624 182.241 122.229 182.648 121.939 183.182C121.65 183.716 121.505 184.364 121.505 185.125ZM139.225 179.909V181.614H132.441V179.909H139.225ZM134.419 176.773H136.43V189.25C136.43 189.818 136.512 190.244 136.677 190.528C136.848 190.807 137.064 190.994 137.325 191.091C137.592 191.182 137.873 191.227 138.169 191.227C138.39 191.227 138.572 191.216 138.714 191.193C138.856 191.165 138.97 191.142 139.055 191.125L139.464 192.932C139.328 192.983 139.137 193.034 138.893 193.085C138.649 193.142 138.339 193.17 137.964 193.17C137.396 193.17 136.839 193.048 136.294 192.804C135.754 192.56 135.305 192.188 134.947 191.688C134.595 191.188 134.419 190.557 134.419 189.795V176.773Z" fill="black"/>
<path d="M105.735 63.0424C103.153 54.8226 96.57 48.3638 88.2891 45.9254L88.2824 40.2469C88.2615 37.9868 87.3918 35.7402 85.8985 34.0962C84.2135 32.1852 81.6036 31 79.0765 31C79.0422 31.0067 79.0012 31.0067 78.9669 31C76.4256 31 73.809 32.1853 72.1449 34.0821C70.6382 35.7394 69.7676 37.9861 69.7474 40.2604V45.9248C61.4597 48.3698 54.8771 54.8226 52.2949 63.0417C46.0279 66.3154 42 72.9055 42 80.0014V108.735C42 119.277 50.5757 127.852 61.1175 127.852L96.9118 127.853C107.454 127.853 116.036 119.278 116.036 108.736V80.0022C116.036 72.9066 112.009 66.3173 105.734 63.0426L105.735 63.0424ZM76.6714 40.3088C76.6781 39.9597 76.7744 39.2884 77.295 38.7058C77.7194 38.2262 78.3774 37.9249 79.0143 37.9249H79.021C79.6513 37.9249 80.3084 38.2262 80.747 38.7192C81.2543 39.2876 81.3497 39.9522 81.3564 40.2669L81.3631 44.8833C81.2334 44.8766 81.1095 44.8624 80.9731 44.8624H77.0548C76.9251 44.8624 76.7945 44.8758 76.6648 44.8833L76.6714 40.3088ZM79.0144 53.2471C90.2066 53.2471 99.3163 61.7817 99.3163 72.2751H96.9056C96.9056 63.1101 88.8849 55.6579 79.0144 55.6579C69.1506 55.6579 61.1233 63.1101 61.1233 72.2751H58.7126C58.7117 61.7826 67.8223 53.2471 79.0144 53.2471ZM104.514 96.0979C104.514 109.078 93.9591 119.633 80.973 119.633H77.0548C64.0746 119.633 53.5134 109.078 53.5134 96.0979V89.584H63.1436V92.3789C61.7599 92.8786 60.7596 94.1937 60.7596 95.7421V100.276C60.7596 102.256 62.3693 103.866 64.3489 103.866C66.3286 103.866 67.9382 102.256 67.9382 100.276V95.7421C67.9382 94.1944 66.9379 92.8786 65.5543 92.3789L65.5551 89.584H104.517L104.514 96.0979Z" fill="black"/>
</svg>
