<svg width="189" height="124" viewBox="0 0 189 124" fill="none" xmlns="http://www.w3.org/2000/svg">
<path d="M0.874 1.2H11.626C15.1247 1.2 17.7487 2.13866 19.498 4.016C21.2473 5.89333 22.122 8.64533 22.122 12.272V34.928C22.122 38.5547 21.2473 41.3067 19.498 43.184C17.7487 45.0613 15.1247 46 11.626 46H0.874V1.2ZM11.498 39.6C12.65 39.6 13.5247 39.2587 14.122 38.576C14.762 37.8933 15.082 36.784 15.082 35.248V11.952C15.082 10.416 14.762 9.30666 14.122 8.624C13.5247 7.94133 12.65 7.6 11.498 7.6H7.914V39.6H11.498ZM26.874 1.2H33.914V46H26.874V1.2ZM48.3385 46.64C44.9252 46.64 42.3438 45.68 40.5945 43.76C38.8452 41.7973 37.9705 39.0027 37.9705 35.376V32.816H44.6265V35.888C44.6265 38.7893 45.8425 40.24 48.2745 40.24C49.4692 40.24 50.3652 39.8987 50.9625 39.216C51.6025 38.4907 51.9225 37.3387 51.9225 35.76C51.9225 33.8827 51.4958 32.24 50.6425 30.832C49.7892 29.3813 48.2105 27.6533 45.9065 25.648C43.0052 23.088 40.9785 20.784 39.8265 18.736C38.6745 16.6453 38.0985 14.2987 38.0985 11.696C38.0985 8.15467 38.9945 5.424 40.7865 3.504C42.5785 1.54133 45.1812 0.559998 48.5945 0.559998C51.9652 0.559998 54.5038 1.54133 56.2105 3.504C57.9598 5.424 58.8345 8.19733 58.8345 11.824V13.68H52.1785V11.376C52.1785 9.84 51.8798 8.73066 51.2825 8.048C50.6852 7.32266 49.8105 6.96 48.6585 6.96C46.3118 6.96 45.1385 8.38933 45.1385 11.248C45.1385 12.8693 45.5652 14.384 46.4185 15.792C47.3145 17.2 48.9145 18.9067 51.2185 20.912C54.1625 23.472 56.1892 25.7973 57.2985 27.888C58.4078 29.9787 58.9625 32.432 58.9625 35.248C58.9625 38.9173 58.0452 41.7333 56.2105 43.696C54.4185 45.6587 51.7945 46.64 48.3385 46.64ZM72.919 46.64C69.5483 46.64 66.967 45.68 65.175 43.76C63.4257 41.84 62.551 39.1307 62.551 35.632V11.568C62.551 8.06933 63.4257 5.36 65.175 3.44C66.967 1.52 69.5483 0.559998 72.919 0.559998C76.2897 0.559998 78.8497 1.52 80.599 3.44C82.391 5.36 83.287 8.06933 83.287 11.568V16.304H76.631V11.12C76.631 8.34667 75.4577 6.96 73.111 6.96C70.7643 6.96 69.591 8.34667 69.591 11.12V36.144C69.591 38.8747 70.7643 40.24 73.111 40.24C75.4577 40.24 76.631 38.8747 76.631 36.144V29.296H83.287V35.632C83.287 39.1307 82.391 41.84 80.599 43.76C78.8497 45.68 76.2897 46.64 72.919 46.64ZM107.733 46.64C104.32 46.64 101.717 45.68 99.925 43.76C98.133 41.7973 97.237 39.0027 97.237 35.376V11.824C97.237 8.19733 98.133 5.424 99.925 3.504C101.717 1.54133 104.32 0.559998 107.733 0.559998C111.146 0.559998 113.749 1.54133 115.541 3.504C117.333 5.424 118.229 8.19733 118.229 11.824V15.664H111.573V11.376C111.573 8.432 110.357 6.96 107.925 6.96C105.493 6.96 104.277 8.432 104.277 11.376V35.888C104.277 38.7893 105.493 40.24 107.925 40.24C110.357 40.24 111.573 38.7893 111.573 35.888V27.12H108.053V20.72H118.229V35.376C118.229 39.0027 117.333 41.7973 115.541 43.76C113.749 45.68 111.146 46.64 107.733 46.64ZM132.925 46.64C129.469 46.64 126.824 45.6587 124.989 43.696C123.154 41.7333 122.237 38.96 122.237 35.376V11.824C122.237 8.24 123.154 5.46666 124.989 3.504C126.824 1.54133 129.469 0.559998 132.925 0.559998C136.381 0.559998 139.026 1.54133 140.861 3.504C142.696 5.46666 143.613 8.24 143.613 11.824V35.376C143.613 38.96 142.696 41.7333 140.861 43.696C139.026 45.6587 136.381 46.64 132.925 46.64ZM132.925 40.24C135.357 40.24 136.573 38.768 136.573 35.824V11.376C136.573 8.432 135.357 6.96 132.925 6.96C130.493 6.96 129.277 8.432 129.277 11.376V35.824C129.277 38.768 130.493 40.24 132.925 40.24ZM148.374 1.2H155.414V39.6H166.998V46H148.374V1.2ZM170.374 1.2H188.998V7.6H177.414V20.08H186.502V26.48H177.414V46H170.374V1.2ZM27.4288 78.2H34.2128L37.3488 112.632H37.4768L40.8048 78.2H48.4848L51.8128 112.632H51.9408L55.0768 78.2H61.1568L56.6128 123H47.8448L44.6448 92.792H44.5168L41.3168 123H31.9728L27.4288 78.2ZM74.8938 123.64C71.4378 123.64 68.7924 122.659 66.9578 120.696C65.1231 118.733 64.2057 115.96 64.2057 112.376V88.824C64.2057 85.24 65.1231 82.4667 66.9578 80.504C68.7924 78.5413 71.4378 77.56 74.8938 77.56C78.3498 77.56 80.9951 78.5413 82.8298 80.504C84.6644 82.4667 85.5818 85.24 85.5818 88.824V112.376C85.5818 115.96 84.6644 118.733 82.8298 120.696C80.9951 122.659 78.3498 123.64 74.8938 123.64ZM74.8938 117.24C77.3258 117.24 78.5417 115.768 78.5417 112.824V88.376C78.5417 85.432 77.3258 83.96 74.8938 83.96C72.4618 83.96 71.2458 85.432 71.2458 88.376V112.824C71.2458 115.768 72.4618 117.24 74.8938 117.24ZM90.3428 78.2H100.775C104.401 78.2 107.047 79.0533 108.711 80.76C110.375 82.424 111.207 85.0053 111.207 88.504V91.256C111.207 95.9067 109.671 98.8507 106.599 100.088V100.216C108.305 100.728 109.5 101.773 110.183 103.352C110.908 104.931 111.271 107.043 111.271 109.688V117.56C111.271 118.84 111.313 119.885 111.399 120.696C111.484 121.464 111.697 122.232 112.039 123H104.871C104.615 122.275 104.444 121.592 104.359 120.952C104.273 120.312 104.231 119.16 104.231 117.496V109.304C104.231 107.256 103.889 105.827 103.207 105.016C102.567 104.205 101.436 103.8 99.8148 103.8H97.3828V123H90.3428V78.2ZM99.9428 97.4C101.351 97.4 102.396 97.0373 103.079 96.312C103.804 95.5867 104.167 94.3707 104.167 92.664V89.208C104.167 87.5867 103.868 86.4133 103.271 85.688C102.716 84.9627 101.82 84.6 100.583 84.6H97.3828V97.4H99.9428ZM116.155 78.2H123.195V116.6H134.779V123H116.155V78.2ZM138.155 78.2H148.907C152.406 78.2 155.03 79.1387 156.779 81.016C158.529 82.8933 159.403 85.6453 159.403 89.272V111.928C159.403 115.555 158.529 118.307 156.779 120.184C155.03 122.061 152.406 123 148.907 123H138.155V78.2ZM148.779 116.6C149.931 116.6 150.806 116.259 151.403 115.576C152.043 114.893 152.363 113.784 152.363 112.248V88.952C152.363 87.416 152.043 86.3067 151.403 85.624C150.806 84.9413 149.931 84.6 148.779 84.6H145.195V116.6H148.779Z" fill="#1E1E1E"/>
</svg>
