<svg width="160" height="235" viewBox="0 0 160 235" fill="none" xmlns="http://www.w3.org/2000/svg">
<path d="M52.1222 27.2762C52.1222 47.4332 58.8412 64.7569 68.3953 72.4198C63.0407 72.5244 58.2118 72.7345 54.1168 73.0501C42.8835 73.9943 41.7285 75.1494 42.0431 76.724L46.8729 90.6869C47.6078 92.1568 48.9722 93.1019 57.2666 93.8367C62.5157 94.2569 69.2349 94.5716 76.374 94.6762V116.304C76.374 117.879 77.7392 119.244 79.3138 119.244H79.4184C80.9929 119.244 82.3582 117.879 82.3582 116.304V94.6784C89.4974 94.5738 96.1119 94.3636 101.256 93.8388C109.55 93.1039 111.229 92.0542 111.649 90.689L116.584 76.7262C117.004 75.1517 115.744 73.9966 104.615 73.157C100.521 72.8423 95.6915 72.6322 90.3369 72.5267C99.8911 64.8626 106.61 47.436 106.61 27.3832L106.4 21.6092C106.4 20.0347 105.035 19.0897 97.6862 18.2492C93.4866 17.829 88.132 17.5143 82.3581 17.4097V15.9398C82.3581 14.2598 80.9929 13 79.4183 13C77.7384 13 76.4785 14.3652 76.4785 15.9398V17.4097C70.7046 17.5143 65.2453 17.7244 61.0457 18.2492C54.012 18.9842 52.4365 19.9292 52.332 21.399L52.1222 27.2762ZM108.081 76.7248C102.726 77.2496 93.8023 77.7745 82.3579 77.8799V76.4101C83.303 76.2 84.1425 75.9899 84.9829 75.6751C95.2712 75.7806 103.145 76.2 108.081 76.7248V76.7248ZM101.782 80.505L99.8918 90.8987C97.5825 91.1088 94.8527 91.2135 91.7029 91.4236L92.5424 80.9253C95.9025 80.8198 99.0522 80.7152 101.782 80.5051L101.782 80.505ZM103.566 27.2764C103.566 45.6489 97.8971 61.6072 89.8127 69.0622C95.1673 60.3484 98.6319 45.0193 98.6319 27.2764V24.7569C100.837 24.5468 102.411 24.232 103.566 23.9173C103.461 25.0716 103.566 26.2258 103.566 27.2764H103.566ZM86.2436 68.745C89.9182 58.5615 91.3882 40.7143 91.3882 27.2743V25.3842C92.7534 25.2796 94.1177 25.1741 95.273 25.0695V27.2743C95.3776 46.5926 91.3882 61.5 86.2436 68.745V68.745ZM82.4642 20.1364C91.4927 20.2411 98.2125 20.8714 101.677 21.5017C98.3171 22.132 91.5982 22.7614 82.4642 22.8669V20.1364ZM82.4642 25.7004C84.4589 25.7004 86.4536 25.5957 88.3438 25.5957V27.3803C88.3438 48.2723 85.5095 63.4961 82.4642 70.111V25.7004ZM76.4792 20.1364V22.866C67.3453 22.7614 60.6264 22.1311 57.1618 21.5008C60.6264 20.8713 67.3453 20.241 76.4792 20.1364V20.1364ZM72.4899 68.745C67.4507 61.5011 63.356 46.5922 63.356 27.2743V25.0695C64.6157 25.1741 65.8755 25.2796 67.2407 25.3843V27.2743C67.2407 40.7133 68.8153 58.56 72.4899 68.745V68.745ZM70.3906 27.2764V25.4919C72.2806 25.5965 74.3799 25.5965 76.3747 25.5965V70.3201C73.4349 64.0205 70.3906 48.5872 70.3906 27.2743V27.2764ZM55.2725 27.2764C55.2725 26.1213 55.2725 25.0717 55.3771 23.9164C56.5322 24.2312 58.1067 24.5467 60.3115 24.756V27.2756C60.3115 45.1232 63.776 60.3463 69.1306 69.0613C60.8363 61.7128 55.2723 45.7534 55.2723 27.2777L55.2725 27.2764ZM73.6449 75.675C74.59 75.9898 75.535 76.3053 76.4793 76.5146V77.8798C64.9303 77.7752 56.0066 77.355 50.6536 76.7247C55.5879 76.1999 63.462 75.7805 73.6464 75.675L73.6449 75.675ZM65.5606 80.9242L66.4001 91.4224C63.5658 91.3178 60.9408 91.1077 58.736 91.0023L57.2661 80.6085C59.7865 80.7148 62.6207 80.8195 65.5605 80.9241L65.5606 80.9242ZM46.2431 79.4543C48.0277 79.769 50.5473 80.0846 54.0118 80.3993H54.2219L55.6918 90.6885C52.542 90.3737 50.5472 89.9535 49.8122 89.6388L46.2431 79.4543ZM69.446 91.528L68.6064 81.0297C71.126 81.1344 73.751 81.1343 76.4806 81.1343V91.6326C73.9601 91.6335 71.6508 91.528 69.446 91.528ZM82.4647 81.1343C84.8797 81.1343 87.2945 81.1343 89.6038 81.0297L88.7643 91.5279C86.7696 91.6326 84.6695 91.6326 82.4653 91.6326L82.4647 81.1343ZM108.92 89.6389C108.185 89.9536 106.191 90.3738 103.041 90.6885L104.931 80.3994C108.291 80.0846 110.705 79.8745 112.49 79.5598L108.92 89.6389Z" fill="black"/>
<path d="M3.65661 151V133.545H14.1225V135.42H5.77024V141.318H13.3384V143.193H5.77024V151H3.65661ZM17.4698 151V137.909H19.4812V151H17.4698ZM18.4925 135.727C18.1005 135.727 17.7624 135.594 17.4783 135.327C17.1999 135.06 17.0607 134.739 17.0607 134.364C17.0607 133.989 17.1999 133.668 17.4783 133.401C17.7624 133.134 18.1005 133 18.4925 133C18.8846 133 19.2198 133.134 19.4982 133.401C19.7823 133.668 19.9244 133.989 19.9244 134.364C19.9244 134.739 19.7823 135.06 19.4982 135.327C19.2198 135.594 18.8846 135.727 18.4925 135.727ZM25.1765 143.125V151H23.1651V137.909H25.1083V139.955H25.2788C25.5856 139.29 26.0515 138.756 26.6765 138.352C27.3015 137.943 28.1083 137.739 29.0969 137.739C29.9833 137.739 30.7589 137.92 31.4237 138.284C32.0884 138.642 32.6055 139.188 32.9748 139.92C33.3441 140.648 33.5288 141.568 33.5288 142.682V151H31.5174V142.818C31.5174 141.79 31.2504 140.989 30.7163 140.415C30.1822 139.835 29.4492 139.545 28.5174 139.545C27.8754 139.545 27.3015 139.685 26.7958 139.963C26.2958 140.241 25.9009 140.648 25.6112 141.182C25.3214 141.716 25.1765 142.364 25.1765 143.125ZM42.1474 151.273C41.0565 151.273 40.0934 150.997 39.2582 150.446C38.4229 149.889 37.7695 149.105 37.2979 148.094C36.8263 147.077 36.5906 145.875 36.5906 144.489C36.5906 143.114 36.8263 141.92 37.2979 140.909C37.7695 139.898 38.4258 139.116 39.2667 138.565C40.1076 138.014 41.0792 137.739 42.1815 137.739C43.0337 137.739 43.707 137.881 44.2013 138.165C44.7013 138.443 45.082 138.761 45.3434 139.119C45.6104 139.472 45.8178 139.761 45.9656 139.989H46.136V133.545H48.1474V151H46.2042V148.989H45.9656C45.8178 149.227 45.6076 149.528 45.3349 149.892C45.0621 150.25 44.6729 150.571 44.1673 150.855C43.6616 151.134 42.9883 151.273 42.1474 151.273ZM42.4201 149.466C43.2269 149.466 43.9087 149.256 44.4656 148.835C45.0224 148.409 45.4457 147.821 45.7354 147.071C46.0252 146.315 46.1701 145.443 46.1701 144.455C46.1701 143.477 46.0281 142.622 45.744 141.889C45.4599 141.151 45.0394 140.577 44.4826 140.168C43.9258 139.753 43.2383 139.545 42.4201 139.545C41.5678 139.545 40.8576 139.764 40.2894 140.202C39.7269 140.634 39.3036 141.222 39.0195 141.966C38.7411 142.705 38.6019 143.534 38.6019 144.455C38.6019 145.386 38.744 146.233 39.0281 146.994C39.3178 147.75 39.744 148.352 40.3065 148.801C40.8746 149.244 41.5792 149.466 42.4201 149.466ZM62.7127 151.307C61.8832 151.307 61.1303 151.151 60.4542 150.838C59.7781 150.52 59.2411 150.062 58.8434 149.466C58.4457 148.864 58.2468 148.136 58.2468 147.284C58.2468 146.534 58.3945 145.926 58.69 145.46C58.9854 144.989 59.3803 144.619 59.8746 144.352C60.369 144.085 60.9144 143.886 61.511 143.756C62.1133 143.619 62.7184 143.511 63.3263 143.432C64.1218 143.33 64.7667 143.253 65.261 143.202C65.761 143.145 66.1246 143.051 66.3519 142.92C66.5849 142.79 66.7013 142.562 66.7013 142.239V142.17C66.7013 141.33 66.4712 140.676 66.011 140.21C65.5565 139.744 64.8661 139.511 63.94 139.511C62.9798 139.511 62.2269 139.722 61.6815 140.142C61.136 140.562 60.7525 141.011 60.5309 141.489L58.6218 140.807C58.9627 140.011 59.4173 139.392 59.9854 138.949C60.5593 138.5 61.1843 138.187 61.8604 138.011C62.5423 137.83 63.2127 137.739 63.8718 137.739C64.2923 137.739 64.7752 137.79 65.3207 137.892C65.8718 137.989 66.4031 138.19 66.9144 138.497C67.4315 138.804 67.8604 139.267 68.2013 139.886C68.5423 140.506 68.7127 141.335 68.7127 142.375V151H66.7013V149.227H66.5991C66.4627 149.511 66.2354 149.815 65.9173 150.139C65.5991 150.463 65.1758 150.739 64.6474 150.966C64.119 151.193 63.4741 151.307 62.7127 151.307ZM63.0195 149.5C63.815 149.5 64.4854 149.344 65.0309 149.031C65.582 148.719 65.9968 148.315 66.2752 147.821C66.5593 147.327 66.7013 146.807 66.7013 146.261V144.42C66.6161 144.523 66.4286 144.616 66.1388 144.702C65.8548 144.781 65.5252 144.852 65.1502 144.915C64.7809 144.972 64.4201 145.023 64.0678 145.068C63.7212 145.108 63.44 145.142 63.2241 145.17C62.7013 145.239 62.2127 145.349 61.7582 145.503C61.3093 145.651 60.9457 145.875 60.6673 146.176C60.3945 146.472 60.2582 146.875 60.2582 147.386C60.2582 148.085 60.5167 148.614 61.0337 148.972C61.5565 149.324 62.2184 149.5 63.0195 149.5ZM93.4521 139H91.3384C91.2134 138.392 90.9947 137.858 90.6822 137.398C90.3754 136.938 90.0004 136.551 89.5572 136.239C89.1197 135.92 88.6339 135.682 88.0998 135.523C87.5657 135.364 87.0089 135.284 86.4293 135.284C85.3725 135.284 84.4151 135.551 83.5572 136.085C82.7049 136.619 82.0259 137.406 81.5202 138.446C81.0202 139.486 80.7702 140.761 80.7702 142.273C80.7702 143.784 81.0202 145.06 81.5202 146.099C82.0259 147.139 82.7049 147.926 83.5572 148.46C84.4151 148.994 85.3725 149.261 86.4293 149.261C87.0089 149.261 87.5657 149.182 88.0998 149.023C88.6339 148.864 89.1197 148.628 89.5572 148.315C90.0004 147.997 90.3754 147.608 90.6822 147.148C90.9947 146.682 91.2134 146.148 91.3384 145.545H93.4521C93.293 146.437 93.0032 147.236 92.5827 147.94C92.1623 148.645 91.6396 149.244 91.0146 149.739C90.3896 150.227 89.6879 150.599 88.9094 150.855C88.1367 151.111 87.31 151.239 86.4293 151.239C84.9407 151.239 83.6168 150.875 82.4577 150.148C81.2987 149.42 80.3867 148.386 79.7219 147.045C79.0572 145.705 78.7248 144.114 78.7248 142.273C78.7248 140.432 79.0572 138.841 79.7219 137.5C80.3867 136.159 81.2987 135.125 82.4577 134.398C83.6168 133.67 84.9407 133.307 86.4293 133.307C87.31 133.307 88.1367 133.435 88.9094 133.69C89.6879 133.946 90.3896 134.321 91.0146 134.815C91.6396 135.304 92.1623 135.901 92.5827 136.605C93.0032 137.304 93.293 138.102 93.4521 139ZM101.913 151.273C100.731 151.273 99.6942 150.991 98.8022 150.429C97.9158 149.866 97.2227 149.08 96.7227 148.068C96.2283 147.057 95.9812 145.875 95.9812 144.523C95.9812 143.159 96.2283 141.969 96.7227 140.952C97.2227 139.935 97.9158 139.145 98.8022 138.582C99.6942 138.02 100.731 137.739 101.913 137.739C103.095 137.739 104.129 138.02 105.015 138.582C105.907 139.145 106.6 139.935 107.095 140.952C107.595 141.969 107.845 143.159 107.845 144.523C107.845 145.875 107.595 147.057 107.095 148.068C106.6 149.08 105.907 149.866 105.015 150.429C104.129 150.991 103.095 151.273 101.913 151.273ZM101.913 149.466C102.811 149.466 103.549 149.236 104.129 148.776C104.708 148.315 105.137 147.71 105.416 146.96C105.694 146.21 105.833 145.398 105.833 144.523C105.833 143.648 105.694 142.832 105.416 142.077C105.137 141.321 104.708 140.71 104.129 140.244C103.549 139.778 102.811 139.545 101.913 139.545C101.015 139.545 100.277 139.778 99.6971 140.244C99.1175 140.71 98.6886 141.321 98.4102 142.077C98.1317 142.832 97.9925 143.648 97.9925 144.523C97.9925 145.398 98.1317 146.21 98.4102 146.96C98.6886 147.71 99.1175 148.315 99.6971 148.776C100.277 149.236 101.015 149.466 101.913 149.466ZM119.165 145.648V137.909H121.176V151H119.165V148.784H119.029C118.722 149.449 118.245 150.014 117.597 150.48C116.949 150.94 116.131 151.17 115.142 151.17C114.324 151.17 113.597 150.991 112.961 150.634C112.324 150.27 111.824 149.724 111.461 148.997C111.097 148.264 110.915 147.341 110.915 146.227V137.909H112.926V146.091C112.926 147.045 113.194 147.807 113.728 148.375C114.267 148.943 114.955 149.227 115.79 149.227C116.29 149.227 116.799 149.099 117.316 148.844C117.838 148.588 118.276 148.196 118.628 147.668C118.986 147.139 119.165 146.466 119.165 145.648ZM124.86 151V137.909H126.804V139.886H126.94C127.179 139.239 127.61 138.713 128.235 138.31C128.86 137.906 129.565 137.705 130.349 137.705C130.497 137.705 130.681 137.707 130.903 137.713C131.125 137.719 131.292 137.727 131.406 137.739V139.784C131.338 139.767 131.181 139.741 130.937 139.707C130.699 139.668 130.446 139.648 130.179 139.648C129.542 139.648 128.974 139.781 128.474 140.048C127.98 140.31 127.588 140.673 127.298 141.139C127.014 141.599 126.872 142.125 126.872 142.716V151H124.86ZM143.063 140.841L141.256 141.352C141.142 141.051 140.975 140.759 140.753 140.474C140.537 140.185 140.242 139.946 139.867 139.759C139.492 139.571 139.012 139.477 138.426 139.477C137.625 139.477 136.958 139.662 136.424 140.031C135.895 140.395 135.631 140.858 135.631 141.42C135.631 141.92 135.813 142.315 136.176 142.605C136.54 142.895 137.108 143.136 137.881 143.33L139.824 143.807C140.995 144.091 141.867 144.526 142.441 145.111C143.015 145.69 143.301 146.437 143.301 147.352C143.301 148.102 143.086 148.773 142.654 149.364C142.228 149.955 141.631 150.42 140.864 150.761C140.097 151.102 139.205 151.273 138.188 151.273C136.853 151.273 135.748 150.983 134.873 150.403C133.998 149.824 133.444 148.977 133.211 147.864L135.12 147.386C135.301 148.091 135.645 148.619 136.151 148.972C136.662 149.324 137.33 149.5 138.154 149.5C139.091 149.5 139.836 149.301 140.387 148.903C140.944 148.5 141.222 148.017 141.222 147.455C141.222 147 141.063 146.619 140.745 146.312C140.426 146 139.938 145.767 139.279 145.614L137.097 145.102C135.898 144.818 135.017 144.378 134.455 143.781C133.898 143.179 133.62 142.426 133.62 141.523C133.62 140.784 133.827 140.131 134.242 139.562C134.662 138.994 135.233 138.548 135.955 138.224C136.682 137.901 137.506 137.739 138.426 137.739C139.722 137.739 140.739 138.023 141.478 138.591C142.222 139.159 142.75 139.909 143.063 140.841ZM151.818 151.273C150.556 151.273 149.468 150.994 148.554 150.438C147.645 149.875 146.943 149.091 146.449 148.085C145.96 147.074 145.716 145.898 145.716 144.557C145.716 143.216 145.96 142.034 146.449 141.011C146.943 139.983 147.63 139.182 148.511 138.608C149.397 138.028 150.431 137.739 151.613 137.739C152.295 137.739 152.968 137.852 153.633 138.08C154.298 138.307 154.903 138.676 155.449 139.188C155.994 139.693 156.429 140.364 156.752 141.199C157.076 142.034 157.238 143.062 157.238 144.284V145.136H147.147V143.398H155.193C155.193 142.659 155.045 142 154.75 141.42C154.46 140.841 154.045 140.384 153.505 140.048C152.971 139.713 152.341 139.545 151.613 139.545C150.812 139.545 150.119 139.744 149.534 140.142C148.954 140.534 148.508 141.045 148.196 141.676C147.883 142.307 147.727 142.983 147.727 143.705V144.864C147.727 145.852 147.897 146.69 148.238 147.378C148.585 148.06 149.065 148.58 149.679 148.938C150.292 149.29 151.005 149.466 151.818 149.466C152.346 149.466 152.824 149.392 153.25 149.244C153.681 149.091 154.054 148.864 154.366 148.562C154.679 148.256 154.92 147.875 155.091 147.42L157.034 147.966C156.829 148.625 156.485 149.205 156.002 149.705C155.52 150.199 154.923 150.585 154.213 150.864C153.502 151.136 152.704 151.273 151.818 151.273Z" fill="black"/>
</svg>
