<svg width="276" height="317" viewBox="0 0 276 317" fill="none" xmlns="http://www.w3.org/2000/svg">
<path d="M56.2621 204V186.545H58.3757V202.125H66.4893V204H56.2621ZM74.978 204.273C73.7166 204.273 72.6286 203.994 71.7138 203.438C70.8047 202.875 70.103 202.091 69.6087 201.085C69.12 200.074 68.8757 198.898 68.8757 197.557C68.8757 196.216 69.12 195.034 69.6087 194.011C70.103 192.983 70.7905 192.182 71.6712 191.608C72.5575 191.028 73.5916 190.739 74.7734 190.739C75.4553 190.739 76.1286 190.852 76.7933 191.08C77.4581 191.307 78.0632 191.676 78.6087 192.188C79.1541 192.693 79.5888 193.364 79.9126 194.199C80.2365 195.034 80.3984 196.062 80.3984 197.284V198.136H70.3075V196.398H78.353C78.353 195.659 78.2053 195 77.9098 194.42C77.62 193.841 77.2053 193.384 76.6655 193.048C76.1314 192.713 75.5007 192.545 74.7734 192.545C73.9723 192.545 73.2791 192.744 72.6939 193.142C72.1143 193.534 71.6683 194.045 71.3558 194.676C71.0433 195.307 70.8871 195.983 70.8871 196.705V197.864C70.8871 198.852 71.0575 199.69 71.3984 200.378C71.745 201.06 72.2251 201.58 72.8388 201.938C73.4524 202.29 74.1655 202.466 74.978 202.466C75.5064 202.466 75.9837 202.392 76.4098 202.244C76.8416 202.091 77.2138 201.864 77.5263 201.562C77.8388 201.256 78.0803 200.875 78.2507 200.42L80.1939 200.966C79.9893 201.625 79.6456 202.205 79.1626 202.705C78.6797 203.199 78.0831 203.585 77.3729 203.864C76.6626 204.136 75.8643 204.273 74.978 204.273ZM87.3104 204.307C86.4808 204.307 85.728 204.151 85.0518 203.838C84.3757 203.52 83.8388 203.062 83.4411 202.466C83.0433 201.864 82.8445 201.136 82.8445 200.284C82.8445 199.534 82.9922 198.926 83.2876 198.46C83.5831 197.989 83.978 197.619 84.4723 197.352C84.9666 197.085 85.5121 196.886 86.1087 196.756C86.7109 196.619 87.3161 196.511 87.924 196.432C88.7195 196.33 89.3643 196.253 89.8587 196.202C90.3587 196.145 90.7223 196.051 90.9496 195.92C91.1825 195.79 91.299 195.562 91.299 195.239V195.17C91.299 194.33 91.0689 193.676 90.6087 193.21C90.1541 192.744 89.4638 192.511 88.5376 192.511C87.5774 192.511 86.8246 192.722 86.2791 193.142C85.7337 193.562 85.3501 194.011 85.1286 194.489L83.2195 193.807C83.5604 193.011 84.0149 192.392 84.5831 191.949C85.157 191.5 85.782 191.187 86.4581 191.011C87.1399 190.83 87.8104 190.739 88.4695 190.739C88.8899 190.739 89.3729 190.79 89.9183 190.892C90.4695 190.989 91.0007 191.19 91.5121 191.497C92.0291 191.804 92.4581 192.267 92.799 192.886C93.1399 193.506 93.3104 194.335 93.3104 195.375V204H91.299V202.227H91.1967C91.0604 202.511 90.8331 202.815 90.5149 203.139C90.1967 203.463 89.7734 203.739 89.245 203.966C88.7166 204.193 88.0717 204.307 87.3104 204.307ZM87.6172 202.5C88.4126 202.5 89.0831 202.344 89.6286 202.031C90.1797 201.719 90.5945 201.315 90.8729 200.821C91.157 200.327 91.299 199.807 91.299 199.261V197.42C91.2138 197.523 91.0263 197.616 90.7365 197.702C90.4524 197.781 90.1229 197.852 89.7479 197.915C89.3786 197.972 89.0178 198.023 88.6655 198.068C88.3189 198.108 88.0376 198.142 87.8217 198.17C87.299 198.239 86.8104 198.349 86.3558 198.503C85.907 198.651 85.5433 198.875 85.2649 199.176C84.9922 199.472 84.8558 199.875 84.8558 200.386C84.8558 201.085 85.1143 201.614 85.6314 201.972C86.1541 202.324 86.8161 202.5 87.6172 202.5ZM96.9815 204V190.909H98.9247V192.886H99.0611C99.2997 192.239 99.7315 191.713 100.357 191.31C100.982 190.906 101.686 190.705 102.47 190.705C102.618 190.705 102.803 190.707 103.024 190.713C103.246 190.719 103.413 190.727 103.527 190.739V192.784C103.459 192.767 103.303 192.741 103.058 192.707C102.82 192.668 102.567 192.648 102.3 192.648C101.663 192.648 101.095 192.781 100.595 193.048C100.101 193.31 99.7088 193.673 99.419 194.139C99.1349 194.599 98.9929 195.125 98.9929 195.716V204H96.9815ZM107.923 196.125V204H105.911V190.909H107.854V192.955H108.025C108.332 192.29 108.798 191.756 109.423 191.352C110.048 190.943 110.854 190.739 111.843 190.739C112.729 190.739 113.505 190.92 114.17 191.284C114.835 191.642 115.352 192.188 115.721 192.92C116.09 193.648 116.275 194.568 116.275 195.682V204H114.263V195.818C114.263 194.79 113.996 193.989 113.462 193.415C112.928 192.835 112.195 192.545 111.263 192.545C110.621 192.545 110.048 192.685 109.542 192.963C109.042 193.241 108.647 193.648 108.357 194.182C108.067 194.716 107.923 195.364 107.923 196.125ZM132.393 190.909V192.614H125.609V190.909H132.393ZM127.587 187.773H129.598V200.25C129.598 200.818 129.68 201.244 129.845 201.528C130.016 201.807 130.232 201.994 130.493 202.091C130.76 202.182 131.041 202.227 131.337 202.227C131.558 202.227 131.74 202.216 131.882 202.193C132.024 202.165 132.138 202.142 132.223 202.125L132.632 203.932C132.496 203.983 132.305 204.034 132.061 204.085C131.817 204.142 131.507 204.17 131.132 204.17C130.564 204.17 130.007 204.048 129.462 203.804C128.922 203.56 128.473 203.188 128.115 202.688C127.763 202.188 127.587 201.557 127.587 200.795V187.773ZM140.597 204.273C139.415 204.273 138.378 203.991 137.486 203.429C136.599 202.866 135.906 202.08 135.406 201.068C134.912 200.057 134.665 198.875 134.665 197.523C134.665 196.159 134.912 194.969 135.406 193.952C135.906 192.935 136.599 192.145 137.486 191.582C138.378 191.02 139.415 190.739 140.597 190.739C141.778 190.739 142.813 191.02 143.699 191.582C144.591 192.145 145.284 192.935 145.778 193.952C146.278 194.969 146.528 196.159 146.528 197.523C146.528 198.875 146.278 200.057 145.778 201.068C145.284 202.08 144.591 202.866 143.699 203.429C142.813 203.991 141.778 204.273 140.597 204.273ZM140.597 202.466C141.494 202.466 142.233 202.236 142.812 201.776C143.392 201.315 143.821 200.71 144.099 199.96C144.378 199.21 144.517 198.398 144.517 197.523C144.517 196.648 144.378 195.832 144.099 195.077C143.821 194.321 143.392 193.71 142.812 193.244C142.233 192.778 141.494 192.545 140.597 192.545C139.699 192.545 138.96 192.778 138.381 193.244C137.801 193.71 137.372 194.321 137.094 195.077C136.815 195.832 136.676 196.648 136.676 197.523C136.676 198.398 136.815 199.21 137.094 199.96C137.372 200.71 137.801 201.315 138.381 201.776C138.96 202.236 139.699 202.466 140.597 202.466ZM156.621 204V186.545H162.519C163.888 186.545 165.008 186.793 165.877 187.287C166.752 187.776 167.4 188.438 167.82 189.273C168.241 190.108 168.451 191.04 168.451 192.068C168.451 193.097 168.241 194.031 167.82 194.872C167.406 195.713 166.763 196.384 165.894 196.884C165.025 197.378 163.911 197.625 162.553 197.625H158.326V195.75H162.485C163.423 195.75 164.175 195.588 164.744 195.264C165.312 194.94 165.724 194.503 165.979 193.952C166.241 193.395 166.371 192.767 166.371 192.068C166.371 191.369 166.241 190.744 165.979 190.193C165.724 189.642 165.309 189.21 164.735 188.898C164.161 188.58 163.4 188.42 162.451 188.42H158.735V204H156.621ZM173.594 186.545V204H171.583V186.545H173.594ZM181.131 204.307C180.301 204.307 179.548 204.151 178.872 203.838C178.196 203.52 177.659 203.062 177.261 202.466C176.864 201.864 176.665 201.136 176.665 200.284C176.665 199.534 176.813 198.926 177.108 198.46C177.403 197.989 177.798 197.619 178.293 197.352C178.787 197.085 179.332 196.886 179.929 196.756C180.531 196.619 181.136 196.511 181.744 196.432C182.54 196.33 183.185 196.253 183.679 196.202C184.179 196.145 184.543 196.051 184.77 195.92C185.003 195.79 185.119 195.562 185.119 195.239V195.17C185.119 194.33 184.889 193.676 184.429 193.21C183.974 192.744 183.284 192.511 182.358 192.511C181.398 192.511 180.645 192.722 180.099 193.142C179.554 193.562 179.17 194.011 178.949 194.489L177.04 193.807C177.381 193.011 177.835 192.392 178.403 191.949C178.977 191.5 179.602 191.187 180.278 191.011C180.96 190.83 181.631 190.739 182.29 190.739C182.71 190.739 183.193 190.79 183.739 190.892C184.29 190.989 184.821 191.19 185.332 191.497C185.849 191.804 186.278 192.267 186.619 192.886C186.96 193.506 187.131 194.335 187.131 195.375V204H185.119V202.227H185.017C184.881 202.511 184.653 202.815 184.335 203.139C184.017 203.463 183.594 203.739 183.065 203.966C182.537 204.193 181.892 204.307 181.131 204.307ZM181.438 202.5C182.233 202.5 182.903 202.344 183.449 202.031C184 201.719 184.415 201.315 184.693 200.821C184.977 200.327 185.119 199.807 185.119 199.261V197.42C185.034 197.523 184.847 197.616 184.557 197.702C184.273 197.781 183.943 197.852 183.568 197.915C183.199 197.972 182.838 198.023 182.486 198.068C182.139 198.108 181.858 198.142 181.642 198.17C181.119 198.239 180.631 198.349 180.176 198.503C179.727 198.651 179.364 198.875 179.085 199.176C178.813 199.472 178.676 199.875 178.676 200.386C178.676 201.085 178.935 201.614 179.452 201.972C179.974 202.324 180.636 202.5 181.438 202.5ZM191.629 208.909C191.288 208.909 190.984 208.881 190.717 208.824C190.45 208.773 190.265 208.722 190.163 208.67L190.674 206.898C191.163 207.023 191.594 207.068 191.969 207.034C192.344 207 192.677 206.832 192.967 206.531C193.262 206.236 193.532 205.756 193.776 205.091L194.151 204.068L189.31 190.909H191.492L195.106 201.341H195.242L198.856 190.909H201.038L195.481 205.909C195.231 206.585 194.921 207.145 194.552 207.588C194.183 208.037 193.754 208.369 193.265 208.585C192.782 208.801 192.237 208.909 191.629 208.909ZM84.4297 233H79.0433V215.545H84.6683C86.3615 215.545 87.8104 215.895 89.0149 216.594C90.2195 217.287 91.1428 218.284 91.7848 219.585C92.4268 220.881 92.7479 222.432 92.7479 224.239C92.7479 226.057 92.424 227.622 91.7763 228.935C91.1286 230.241 90.1854 231.247 88.9467 231.952C87.7081 232.651 86.2024 233 84.4297 233ZM81.157 231.125H84.2933C85.7365 231.125 86.9325 230.847 87.8814 230.29C88.8303 229.733 89.5376 228.94 90.0036 227.912C90.4695 226.884 90.7024 225.659 90.7024 224.239C90.7024 222.83 90.4723 221.616 90.0121 220.599C89.5518 219.577 88.8643 218.793 87.9496 218.247C87.0348 217.696 85.8956 217.42 84.532 217.42H81.157V231.125ZM96.0206 233V219.909H98.032V233H96.0206ZM97.0433 217.727C96.6513 217.727 96.3132 217.594 96.0291 217.327C95.7507 217.06 95.6115 216.739 95.6115 216.364C95.6115 215.989 95.7507 215.668 96.0291 215.401C96.3132 215.134 96.6513 215 97.0433 215C97.4354 215 97.7706 215.134 98.049 215.401C98.3331 215.668 98.4751 215.989 98.4751 216.364C98.4751 216.739 98.3331 217.06 98.049 217.327C97.7706 217.594 97.4354 217.727 97.0433 217.727ZM110.989 222.841L109.182 223.352C109.068 223.051 108.901 222.759 108.679 222.474C108.463 222.185 108.168 221.946 107.793 221.759C107.418 221.571 106.938 221.477 106.352 221.477C105.551 221.477 104.884 221.662 104.349 222.031C103.821 222.395 103.557 222.858 103.557 223.42C103.557 223.92 103.739 224.315 104.102 224.605C104.466 224.895 105.034 225.136 105.807 225.33L107.75 225.807C108.92 226.091 109.793 226.526 110.366 227.111C110.94 227.69 111.227 228.437 111.227 229.352C111.227 230.102 111.011 230.773 110.58 231.364C110.153 231.955 109.557 232.42 108.79 232.761C108.023 233.102 107.131 233.273 106.114 233.273C104.778 233.273 103.673 232.983 102.798 232.403C101.923 231.824 101.369 230.977 101.136 229.864L103.045 229.386C103.227 230.091 103.571 230.619 104.077 230.972C104.588 231.324 105.256 231.5 106.08 231.5C107.017 231.5 107.761 231.301 108.312 230.903C108.869 230.5 109.148 230.017 109.148 229.455C109.148 229 108.989 228.619 108.67 228.312C108.352 228 107.864 227.767 107.205 227.614L105.023 227.102C103.824 226.818 102.943 226.378 102.381 225.781C101.824 225.179 101.545 224.426 101.545 223.523C101.545 222.784 101.753 222.131 102.168 221.562C102.588 220.994 103.159 220.548 103.881 220.224C104.608 219.901 105.432 219.739 106.352 219.739C107.648 219.739 108.665 220.023 109.403 220.591C110.148 221.159 110.676 221.909 110.989 222.841ZM119.573 233.273C118.346 233.273 117.289 232.983 116.403 232.403C115.516 231.824 114.835 231.026 114.357 230.009C113.88 228.991 113.641 227.83 113.641 226.523C113.641 225.193 113.886 224.02 114.374 223.003C114.869 221.98 115.556 221.182 116.437 220.608C117.323 220.028 118.357 219.739 119.539 219.739C120.46 219.739 121.289 219.909 122.028 220.25C122.766 220.591 123.371 221.068 123.843 221.682C124.315 222.295 124.607 223.011 124.721 223.83H122.71C122.556 223.233 122.215 222.705 121.687 222.244C121.164 221.778 120.46 221.545 119.573 221.545C118.789 221.545 118.102 221.75 117.511 222.159C116.925 222.562 116.468 223.134 116.138 223.872C115.815 224.605 115.653 225.466 115.653 226.455C115.653 227.466 115.812 228.347 116.13 229.097C116.454 229.847 116.908 230.429 117.494 230.844C118.085 231.259 118.778 231.466 119.573 231.466C120.096 231.466 120.57 231.375 120.996 231.193C121.423 231.011 121.783 230.75 122.079 230.409C122.374 230.068 122.585 229.659 122.71 229.182H124.721C124.607 229.955 124.326 230.651 123.877 231.27C123.434 231.884 122.846 232.372 122.113 232.736C121.386 233.094 120.539 233.273 119.573 233.273ZM146.616 221C146.428 220.426 146.181 219.912 145.874 219.457C145.573 218.997 145.212 218.605 144.792 218.281C144.377 217.957 143.906 217.71 143.377 217.54C142.849 217.369 142.269 217.284 141.638 217.284C140.604 217.284 139.664 217.551 138.817 218.085C137.971 218.619 137.298 219.406 136.798 220.446C136.298 221.486 136.048 222.761 136.048 224.273C136.048 225.784 136.3 227.06 136.806 228.099C137.312 229.139 137.996 229.926 138.86 230.46C139.724 230.994 140.695 231.261 141.775 231.261C142.775 231.261 143.656 231.048 144.417 230.622C145.184 230.19 145.781 229.582 146.207 228.798C146.638 228.009 146.854 227.08 146.854 226.011L147.502 226.148H142.252V224.273H148.9V226.148C148.9 227.585 148.593 228.835 147.979 229.898C147.371 230.96 146.531 231.784 145.457 232.369C144.388 232.949 143.161 233.239 141.775 233.239C140.229 233.239 138.871 232.875 137.701 232.148C136.536 231.42 135.627 230.386 134.974 229.045C134.326 227.705 134.002 226.114 134.002 224.273C134.002 222.892 134.187 221.651 134.556 220.548C134.931 219.44 135.46 218.497 136.141 217.719C136.823 216.94 137.63 216.344 138.562 215.929C139.494 215.514 140.519 215.307 141.638 215.307C142.559 215.307 143.417 215.446 144.212 215.724C145.013 215.997 145.727 216.386 146.352 216.892C146.982 217.392 147.508 217.991 147.928 218.69C148.349 219.384 148.638 220.153 148.798 221H146.616ZM157.565 233.273C156.384 233.273 155.347 232.991 154.455 232.429C153.568 231.866 152.875 231.08 152.375 230.068C151.881 229.057 151.634 227.875 151.634 226.523C151.634 225.159 151.881 223.969 152.375 222.952C152.875 221.935 153.568 221.145 154.455 220.582C155.347 220.02 156.384 219.739 157.565 219.739C158.747 219.739 159.781 220.02 160.668 220.582C161.56 221.145 162.253 221.935 162.747 222.952C163.247 223.969 163.497 225.159 163.497 226.523C163.497 227.875 163.247 229.057 162.747 230.068C162.253 231.08 161.56 231.866 160.668 232.429C159.781 232.991 158.747 233.273 157.565 233.273ZM157.565 231.466C158.463 231.466 159.202 231.236 159.781 230.776C160.361 230.315 160.79 229.71 161.068 228.96C161.347 228.21 161.486 227.398 161.486 226.523C161.486 225.648 161.347 224.832 161.068 224.077C160.79 223.321 160.361 222.71 159.781 222.244C159.202 221.778 158.463 221.545 157.565 221.545C156.668 221.545 155.929 221.778 155.349 222.244C154.77 222.71 154.341 223.321 154.062 224.077C153.784 224.832 153.645 225.648 153.645 226.523C153.645 227.398 153.784 228.21 154.062 228.96C154.341 229.71 154.77 230.315 155.349 230.776C155.929 231.236 156.668 231.466 157.565 231.466ZM168.579 215.545V233H166.567V215.545H168.579ZM178.092 219.909V221.614H171.036V219.909H178.092ZM173.149 233V218.102C173.149 217.352 173.325 216.727 173.678 216.227C174.03 215.727 174.487 215.352 175.05 215.102C175.612 214.852 176.206 214.727 176.831 214.727C177.325 214.727 177.729 214.767 178.041 214.847C178.354 214.926 178.587 215 178.74 215.068L178.161 216.807C178.058 216.773 177.916 216.73 177.734 216.679C177.558 216.628 177.325 216.602 177.036 216.602C176.371 216.602 175.891 216.77 175.595 217.105C175.305 217.44 175.161 217.932 175.161 218.58V233H173.149Z" fill="black"/>
<path d="M142.823 93.3298C142.823 97.3791 139.54 100.661 135.493 100.661C131.443 100.661 128.161 97.379 128.161 93.3298C128.161 89.282 131.444 86 135.493 86C139.54 86 142.823 89.2821 142.823 93.3298Z" fill="black"/>
<path d="M194.553 113.202C194.553 116.884 188.74 119.869 181.57 119.869C174.399 119.869 168.587 116.884 168.587 113.202C168.587 109.519 174.399 106.533 181.57 106.533C188.74 106.533 194.553 109.519 194.553 113.202Z" fill="black"/>
<path d="M104.557 128.591C102.753 128.591 101.281 127.148 101.246 125.346C100.848 108.963 115.244 97.9888 121.471 94.0369L121.47 94.0354C122.211 93.5348 123.124 93.3546 123.999 93.5364C124.875 93.7181 125.639 94.2464 126.12 95.0011C126.6 95.7558 126.754 96.6722 126.548 97.5424C126.343 98.4125 125.793 99.1626 125.024 99.6216C119.748 102.978 107.559 112.185 107.868 125.19C107.893 126.07 107.566 126.921 106.961 127.559C106.357 128.197 105.524 128.568 104.645 128.591L104.557 128.591Z" fill="black"/>
<path d="M153.441 125.149C152.521 125.156 151.64 124.781 151.012 124.111C149.378 122.543 138.824 119.562 130.013 117.796L128.445 117.465L127.716 116.029C127.297 115.213 123.632 107.794 123.764 102.78C123.801 100.977 125.274 99.5351 127.077 99.5351C128.91 99.5829 130.36 101.102 130.323 102.936C130.643 106.009 131.512 109 132.884 111.767C139.75 113.224 152.601 116.315 155.78 119.716C156.695 120.672 156.949 122.082 156.424 123.297C155.899 124.51 154.697 125.291 153.374 125.281L153.441 125.149Z" fill="black"/>
<path d="M128.049 170.125C126.633 170.14 125.364 169.253 124.891 167.916C123.103 162.197 126.967 144.512 128.756 137.005C123.346 134.444 113.542 129.475 111.091 125.965C110.126 124.46 110.527 122.461 112 121.446C113.474 120.433 115.485 120.771 116.545 122.212C117.782 124 126.547 128.836 133.966 132.126L136.506 133.273L135.822 135.967C132.819 147.913 130.191 162.772 131.184 165.93C131.446 166.774 131.36 167.685 130.946 168.465C130.53 169.244 129.821 169.826 128.977 170.08C128.671 170.142 128.358 170.157 128.048 170.125L128.049 170.125Z" fill="black"/>
<path d="M85.2804 166.083C84.4595 166.076 83.671 165.761 83.0718 165.199C82.4249 164.605 82.0399 163.778 82.0029 162.9C81.966 162.022 82.2786 161.166 82.8731 160.519C89.1663 153.696 100.538 149.921 105.417 148.551C105.937 143.823 106.056 139.058 105.77 134.309C105.483 132.48 106.734 130.765 108.563 130.479C110.393 130.192 112.107 131.443 112.394 133.271C113.21 138.261 112.018 150.162 111.886 151.51L111.642 153.873L109.434 154.403C109.28 154.403 94.5524 157.825 87.9497 165.001H87.9512C87.2813 165.761 86.2909 166.162 85.2806 166.083H85.2804Z" fill="black"/>
</svg>
